<svg xmlns="http://www.w3.org/2000/svg" id="layer" viewBox="0 0 600 154.55"><defs><style>.cls-1{fill:#fff}.cls-2{fill:#ff7800}</style></defs><path d="M282.41,18C300.64,3.27,328.24-1.12,351.74,5.32c8.77,2.24,18.91,6.43,20.86,15,.2,7.12-3.12,13.94-4.48,20.87-11.12-9-27.31-11.9-42-9.85-15.89,2.83-27.2,14.72-33,27.2-6.83,14.73-10,31.59-3.8,46.9a30.6,30.6,0,0,0,20.37,17.85c15.31,4,31.79-1,43.2-10.24-2.24,8.87-3.41,18-6.24,26.81-2.93,7.22-12.19,9.85-20.09,11.12-20.77,3.31-44.75-.39-59.38-14.53-14.43-13.65-17.65-33.06-17-50.9,1.07-24.67,10.62-50.51,32.27-67.57" class="cls-1"/><path d="M160.24,85.07c-2.73,9.46-4.29,19.11-6.54,28.67-.78,4.1-3.12,8.58.39,12.19,11,0,22.82.68,32.47-4.88,11.51-5.85,15.31-21.64,5.76-30.32-8.78-6.83-21.26-5.27-32.08-5.66m12-55.67c-2,9.94-4.58,19.79-6.24,29.74-.49,2.83,3.32,4,5.85,3.61,10.34.29,22-.78,29.64-7.61,6.92-6.34,7.8-19-1.85-23.69-8.29-4.1-18.23-2.25-27.4-2.05M143.66,8.24a255.12,255.12,0,0,1,46.41-3.51c14.24.68,29.55,3.32,40.18,12.38,12.57,10.44,13,29.06,2.82,41a44.93,44.93,0,0,1-25.15,14.52c7.89,2.83,15.7,6.93,19.5,14,9.16,16.38,4.19,37.73-11.41,49.72-12.38,10-29.54,13.46-45.83,14.43-12.09.39-24.57.1-36.27-3.21a19.27,19.27,0,0,1-13.16-11.41c-3-7.8-1.85-16.28,0-24.18,7.8-34.62,15-69.23,22.91-103.65" class="cls-1"/><path d="M426.72,30.47c-3,13.65-6.15,27.3-8.88,41.05-1,2.73,1.27,5.36,4,6.53a41.45,41.45,0,0,0,24.77-3.6c13.94-7.12,19.79-23.79,13.45-36.57-6.63-10-22-8.29-33.34-7.41M395.61,9c10.73-2.92,22.23-3.22,33.45-3.61,15.5-.19,32,.2,45.63,7.41a32.88,32.88,0,0,1,18,25.35c3.6,22.63-9.36,47-32.86,57.92-15.51,7.61-33.74,8.09-51.09,7.12-2.83,11.21-4.69,22.62-7.71,33.74-1.56,5.94-5.85,11.7-12.87,13.55-8,.68-16,.1-24,.29,11-47.19,20.57-94.58,31.39-141.77" class="cls-1"/><path d="M508.62,40.61c4.87-10.14,11.5-20.86,23.6-25.25,6.14-2,12.57.78,16.18,5.17,7.22,15.69,5.46,33.25-.19,49a127.1,127.1,0,0,0-39.59-29" class="cls-1"/><path d="M548.4,20.53c13.75,6.24,23.69,17.45,33.05,28.08,7.22,7.9,12,17.94,10.83,28.27-.78,8.78-5.95,16.58-11.9,23.31C568.58,113.74,554,125.25,538.07,135c-6.54,3.7-14.53,7-22.43,4.87-10.73-2.44-17.94-10.92-22.23-19.5,23.4-11.5,45.14-28.08,54.89-50.8,5.66-15.79,7.32-33.35.1-49" class="cls-2"/><path d="M22.66,40.61c4.87-10.14,11.5-20.86,23.6-25.25,6.14-2,12.57.78,16.18,5.17,7.22,15.69,5.46,33.25-.19,49a126.06,126.06,0,0,0-39.59-29" class="cls-1"/><path d="M62.54,20.53C76.29,26.77,86.23,38,95.59,48.61c7.22,7.9,12,17.94,10.83,28.27-.78,8.78-6,16.58-11.9,23.31C82.72,113.74,68.1,125.25,52.2,135c-6.53,3.7-14.53,7-22.42,4.87C19.05,137.43,11.84,129,7.55,120.37c23.4-11.5,45.14-28.08,54.89-50.8,5.56-15.79,7.31-33.35.1-49" class="cls-2"/></svg>