<svg xmlns="http://www.w3.org/2000/svg" width="169" height="169" fill="none" viewBox="0 0 169 169"><circle cx="85.345" cy="85.345" r="75.205" fill="#556EFF"/><path fill="#FFC8E9" fill-rule="evenodd" d="M154.397 114.03C119.793 108.266 104.954 98.612 94.8796 73.8603C93.2383 70.2595 91.2115 67.6388 88.1824 68.1535C85.02 68.6905 83.2597 70.6752 83.2597 73.8759C83.2597 74.5809 83.0245 82.0079 88.7574 92.2041C82.3228 91.0221 76.8121 87.8918 73.3008 79.8393C79.5119 75.282 81.5688 71.9276 82.1163 70.8199C82.1163 70.8199 85.1376 65.3256 80.1588 62.2266C79.7406 62.0063 79.3329 61.8747 78.9304 61.7809C80.0712 59.4716 80.428 57.4907 80.5586 56.9499C81.3127 53.8405 79.2858 50.6789 76.1692 49.9256C73.0499 49.175 69.7516 51.0399 68.9937 54.148C67.6581 59.6345 64.352 69.6248 61.17 73.0679C60.6251 73.6596 60.1782 74.2473 59.7744 74.8311C55.0451 78.0044 52.7374 83.1078 53.7122 88.4639C52.983 89.2563 52.3388 90.1503 51.8109 91.1629C49.2783 96.0264 50.4897 100.434 52.1598 103.564C52.2147 103.666 52.2682 103.766 52.3244 103.865C50.8961 112.595 62.5487 124 62.5487 124C75.836 137.03 88.328 149.721 107.947 157.115C139.047 147.054 151.193 123.145 154.842 114.103" clip-rule="evenodd"/><path fill="#003CE5" fill-rule="evenodd" d="M88.9086 92.2359C89.1405 92.2099 89.3496 92.3768 89.3756 92.6087L89.4857 93.4835L89.6415 94.5897L89.8293 95.8012C90.2177 98.1987 90.7015 100.596 91.286 102.83C91.9445 105.348 92.6905 107.497 93.5243 109.161C93.6288 109.369 93.5445 109.623 93.3359 109.728C93.1273 109.832 92.8734 109.748 92.7689 109.539C91.9047 107.815 91.1406 105.614 90.4685 103.044C89.8765 100.781 89.3876 98.3584 88.9952 95.9364L88.8056 94.713L88.5894 93.1448L88.5359 92.7029C88.5099 92.471 88.6767 92.262 88.9086 92.2359Z" clip-rule="evenodd"/><path fill="#EDF6FC" fill-rule="evenodd" d="M94.8109 10.6995L69.3452 19.7292L126.915 82.7996L94.8109 10.6995Z" clip-rule="evenodd"/><path fill="#BADAF7" fill-rule="evenodd" d="M61.8313 30.7116L126.916 82.7997L69.3459 19.7293L61.8313 30.7116Z" clip-rule="evenodd"/><path fill="#EDF6FC" fill-rule="evenodd" d="M16.4764 31.8152L126.915 82.7997L54.3752 24.7453L16.4764 31.8152Z" clip-rule="evenodd"/><path fill="#9CC5FF" fill-rule="evenodd" d="M56.1901 61.61L126.914 82.7999L54.2266 49.2231L56.1901 61.61Z" clip-rule="evenodd"/><path fill="#9CC5FF" fill-rule="evenodd" d="M79.6975 59.1311C79.5798 59.1372 79.4594 59.116 79.3469 59.0614L68.5234 53.8675C68.1831 53.704 68.0486 53.3091 68.2232 52.9861C68.3992 52.6629 68.8171 52.532 69.156 52.6968L79.9795 57.8908C80.3211 58.0541 80.4557 58.449 80.281 58.7721C80.1633 58.9884 79.9369 59.1185 79.6975 59.1311Z" clip-rule="evenodd"/><path fill="#9CC5FF" fill-rule="evenodd" d="M63.1224 50.8121C63.0032 50.8203 62.8806 50.7991 62.764 50.7436L30.8412 35.4821C30.4871 35.3128 30.3376 34.8904 30.5095 34.539C30.6787 34.1892 31.1029 34.0396 31.4586 34.2102L63.3828 49.473C63.7355 49.6423 63.885 50.0634 63.7145 50.4147C63.5987 50.6518 63.3693 50.795 63.1224 50.8121Z" clip-rule="evenodd"/><path fill="#FFC8E9" fill-rule="evenodd" d="M53.7387 88.6863C52.5888 82.9079 55.2468 77.3654 60.6764 74.2221C69.5481 69.0848 71.7958 65.501 71.8167 65.4658C71.7278 65.6118 71.6965 65.69 71.6965 65.69C71.6965 65.69 75.5449 59.7956 80.1579 62.2261C85.138 65.3251 82.1167 70.8194 82.1167 70.8194C81.4019 72.2607 77.5953 77.8723 65.9388 84.6242" clip-rule="evenodd"/><path fill="#003CE5" fill-rule="evenodd" d="M72.6616 79.7568C72.8496 79.6186 73.1141 79.659 73.2522 79.847C73.3904 80.035 73.35 80.2995 73.162 80.4377C71.0945 81.9572 68.7632 83.4779 66.1519 84.9901C65.95 85.1071 65.6915 85.0382 65.5745 84.8363C65.4576 84.6343 65.5265 84.3759 65.7284 84.2589C68.3136 82.7618 70.6191 81.2579 72.6616 79.7568Z" clip-rule="evenodd"/><path fill="#003CE5" fill-rule="evenodd" d="M78.6325 61.2234C78.8619 61.2658 79.0136 61.4861 78.9713 61.7156C78.9289 61.945 78.7086 62.0967 78.4791 62.0544C76.471 61.6838 75.0271 62.4209 73.4321 64.2307L73.0529 64.6778L71.7338 66.3129L71.2321 66.9142L70.734 67.4845C69.7355 68.5979 68.7076 69.5603 67.3604 70.5679L66.6589 71.0765C66.5371 71.1622 66.4128 71.2484 66.2857 71.3353L65.4893 71.8654C65.2121 72.0453 64.9226 72.2288 64.6195 72.4167L63.6684 72.9946L62.6278 73.6047L61.4897 74.2523C61.2915 74.3637 61.0888 74.4769 60.8816 74.592C60.6776 74.7053 60.4204 74.6317 60.3071 74.4277C60.1938 74.2237 60.2674 73.9665 60.4714 73.8532L61.643 73.1952L62.7133 72.5779L63.6904 71.9959L64.5824 71.4438L65.3973 70.916C66.4359 70.2262 67.2905 69.5868 68.047 68.9396L68.5974 68.4519C68.6865 68.3701 68.7744 68.2879 68.8613 68.2052L69.3715 67.7029C69.455 67.6179 69.5377 67.5323 69.6199 67.4458L70.1083 66.9166L70.5921 66.3625C70.6728 66.2678 70.7536 66.1719 70.8348 66.0745L71.5364 65.2174L72.5001 64.0198C74.3852 61.7606 76.139 60.7632 78.6325 61.2234Z" clip-rule="evenodd"/><path fill="#FFC8E9" fill-rule="evenodd" d="M77.3267 101.463C78.5394 101.092 80.4512 100.958 81.6965 98.9839C83.4032 96.2746 83.0242 92.7585 80.195 90.9275C78.1852 89.6269 67.9388 82.9376 59.5545 85.024C56.1373 85.875 53.4584 87.9992 51.8105 91.1634L61.5748 101.048L77.3267 101.463Z" clip-rule="evenodd"/><path fill="#003CE5" fill-rule="evenodd" d="M59.4529 84.614C60.9807 84.2338 62.619 84.1222 64.3518 84.2549C67.76 84.5159 71.3855 85.6937 75.0677 87.5041C76.2412 88.081 77.3626 88.6948 78.4397 89.3346L79.4099 89.9246L80.0541 90.3336C80.1705 90.4083 80.2932 90.4875 80.425 90.5728C83.3663 92.4764 83.9549 96.0097 82.0601 99.1998C80.9637 101.044 79.1627 101.885 77.327 101.885C77.0937 101.885 76.9045 101.696 76.9045 101.463C76.9045 101.229 77.0937 101.04 77.327 101.04C78.8862 101.04 80.4045 100.331 81.3337 98.7681C83.008 95.9493 82.5042 92.9249 79.9659 91.2822L79.2705 90.8356L78.6616 90.4551L78.0081 90.0611C76.9493 89.4321 75.8472 88.8289 74.6949 88.2624C71.101 86.4954 67.572 85.349 64.2873 85.0974C62.6406 84.9713 61.0923 85.0768 59.6572 85.4339C57.7521 85.9092 56.0827 86.7929 54.7013 88.0521C54.5288 88.2093 54.2616 88.1969 54.1044 88.0245C53.9472 87.852 53.9596 87.5848 54.132 87.4276C55.6181 86.0731 57.413 85.1229 59.4529 84.614Z" clip-rule="evenodd"/><path fill="#FFC8E9" fill-rule="evenodd" d="M52.377 103.449C52.9153 100.795 54.5475 98.6964 56.9742 97.5417C62.7946 94.7698 72.2256 98.8071 77.3272 101.463C80.1721 102.941 81.275 106.441 79.7918 109.278C78.3086 112.114 75.52 113.142 71.9577 111.737C69.5441 110.578 66.745 109.33 65.3807 108.984C64.0164 108.638 62.7815 110.602 64.364 111.68" clip-rule="evenodd"/><path fill="#003CE5" fill-rule="evenodd" d="M56.7912 97.1603C61.7577 94.7955 69.3009 96.8115 77.522 101.088C80.5732 102.674 81.7575 106.43 80.1649 109.474C78.5995 112.47 75.6903 113.511 72.1921 112.277L71.815 112.136C71.0586 111.867 70.2752 111.557 69.4221 111.194L65.9295 109.652L65.3671 109.417C64.2368 108.99 63.4738 110.564 64.6004 111.331C64.7933 111.462 64.8432 111.725 64.7118 111.918C64.5805 112.111 64.3176 112.161 64.1248 112.029C62.1877 110.71 63.58 107.838 65.6656 108.626L66.2449 108.868L69.7533 110.416C70.3819 110.684 70.9708 110.922 71.5434 111.137L72.1114 111.345C75.4017 112.643 78.0018 111.789 79.4161 109.082C80.7919 106.453 79.7689 103.208 77.1322 101.838C69.1445 97.6826 61.7886 95.7167 57.1544 97.9232C54.9122 98.9905 53.3864 100.9 52.8346 103.328C52.7829 103.555 52.5565 103.698 52.329 103.646C52.1014 103.594 51.9589 103.368 52.0106 103.14C52.6197 100.46 54.3152 98.3388 56.7912 97.1603Z" clip-rule="evenodd"/></svg>